<svg width="20" height="20" viewBox="0 0 24 24" fill="none" xmlns="http://www.w3.org/2000/svg">
  <path d="M16.365 1.43c0 1.14-.462 2.09-1.386 2.856-.923.766-1.918 1.19-2.986 1.13-.077-1.11.362-2.14 1.234-2.9.874-.76 1.98-1.29 3.138-1.35.001.088 0 .176 0 .264zM20.66 17.7c-.494 1.14-1.09 2.2-1.788 3.18-.955 1.33-1.735 2.25-2.336 2.75-.93.83-1.928 1.26-2.998 1.28-.77.02-1.7-.22-2.79-.72-1.09-.5-2.09-.73-3.005-.73-.96 0-1.99.23-3.09.73-1.1.5-1.99.75-2.68.77-1.03.04-2.05-.4-3.06-1.32-.65-.53-1.47-1.49-2.44-2.87C-1.44 19.24-2 17.5-2 15.63c0-2.14.58-3.98 1.75-5.53 1.03-1.35 2.39-2.03 4.08-2.06.72-.02 1.66.24 2.83.79 1.16.55 1.9.82 2.24.82.24 0 1.05-.32 2.42-.95 1.3-.58 2.4-.82 3.28-.72 2.42.2 4.24 1.15 5.45 2.86-2.16 1.31-3.24 3.15-3.22 5.5.02 1.83.68 3.36 1.98 4.56.59.56 1.24.98 1.97 1.28-.16.46-.33.9-.52 1.32z" fill="currentColor"/>
</svg>
