<svg width="72" height="24" viewBox="0 0 72 24" fill="none" xmlns="http://www.w3.org/2000/svg" role="img" aria-label="Netti">
  <g transform="translate(0, 6.75)">
    <path d="M7.88672 0.02132C8.01505 -0.0034738 8.13972 -0.00900585 8.25977 0.0174138V0.0183903C12.4572 0.0449027 14.3739 1.92008 14.9072 3.02523C14.9634 3.11975 15.0191 3.21855 15.0713 3.32405C15.6332 4.39561 15.914 5.70387 15.9141 7.24691V16.0379C15.914 16.2735 15.8271 16.4661 15.6543 16.616C15.503 16.766 15.3196 16.8416 15.1035 16.8416H11.667C11.4292 16.8416 11.2343 16.7661 11.083 16.616C10.9319 16.4661 10.8565 16.2734 10.8564 16.0379V7.43929C10.8564 6.30371 10.5754 5.42502 10.0137 4.80355C9.54049 4.24056 8.86801 3.92334 7.99707 3.85335C7.07264 3.90282 6.36423 4.21966 5.87207 4.80355C5.31286 5.42044 5.03322 6.29332 5.0332 7.42073V15.9549C5.0332 16.1887 4.95792 16.3803 4.80762 16.5291C4.65708 16.678 4.46312 16.7527 4.22656 16.7528H0.806641C0.591553 16.7528 0.408373 16.678 0.257812 16.5291C0.0859755 16.3803 0 16.1888 0 15.9549V7.22933C1.29896e-05 5.69773 0.279653 4.39939 0.838867 3.33577C0.858076 3.29703 0.878568 3.25961 0.898438 3.22249H0.897461C0.901879 3.21373 0.907466 3.20503 0.912109 3.19612C0.935755 3.15273 0.959824 3.11043 0.984375 3.06917C1.0007 3.04187 1.01693 3.01346 1.03516 2.98519C1.19548 2.73126 1.37369 2.51766 1.56836 2.32991C2.58106 1.29448 4.5982 0.0871206 7.88672 0.02132Z" fill="white"/>
  </g>
  <g transform="translate(19.21, 6.64)">
    <path d="M8.23503 17.3596C5.74939 17.3596 3.77169 16.6738 2.30192 15.3022C0.853764 13.9306 0.0864571 11.9374 0 9.32276C0 9.15131 0 8.92628 0 8.64767C0 8.34762 0 8.11188 0 7.94042C0.0864571 6.29019 0.464707 4.8757 1.13475 3.69696C1.80479 2.49679 2.74501 1.58594 3.95541 0.964424C5.16581 0.321474 6.58154 0 8.20261 0C10.0182 0 11.5312 0.375053 12.7416 1.12516C13.9736 1.85384 14.8922 2.86112 15.4974 4.14702C16.1242 5.41149 16.4376 6.86884 16.4376 8.51908V9.25847C16.4376 9.47278 16.3512 9.65495 16.1783 9.80497C16.027 9.955 15.8433 10.03 15.6271 10.03H5.02532C5.02532 10.0514 5.02532 10.0943 5.02532 10.1586C5.02532 10.2015 5.02532 10.2443 5.02532 10.2872C5.04693 10.973 5.17661 11.6052 5.41437 12.1839C5.67374 12.7411 6.03038 13.1912 6.48428 13.5341C6.95979 13.877 7.52176 14.0484 8.17019 14.0484C8.71055 14.0484 9.15364 13.9734 9.49947 13.8234C9.8453 13.6734 10.1263 13.4912 10.3424 13.2769C10.5802 13.0626 10.7531 12.8804 10.8612 12.7304C11.0557 12.5161 11.207 12.3875 11.3151 12.3446C11.4448 12.2803 11.6393 12.2482 11.8986 12.2482H15.2705C15.4866 12.2482 15.6595 12.3125 15.7892 12.4411C15.9405 12.5482 16.0054 12.709 15.9837 12.9233C15.9621 13.2662 15.7784 13.6948 15.4326 14.2092C15.1084 14.7021 14.622 15.195 13.9736 15.688C13.3252 16.1595 12.5147 16.5559 11.542 16.8774C10.591 17.1989 9.48866 17.3596 8.23503 17.3596ZM5.02532 7.10459H11.3799V7.04029C11.3799 6.26875 11.2502 5.60437 10.9909 5.04715C10.7531 4.4685 10.3965 4.01843 9.92094 3.69696C9.44543 3.37548 8.87265 3.21475 8.20261 3.21475C7.53257 3.21475 6.95979 3.37548 6.48428 3.69696C6.00876 4.01843 5.64132 4.4685 5.38195 5.04715C5.14419 5.60437 5.02532 6.26875 5.02532 7.04029V7.10459Z" fill="white"/>
  </g>
  <g transform="translate(38.96, 4.09)">
    <path d="M2.8855 18.9771C3.83653 19.4058 4.98208 19.6201 6.32217 19.6201H9.14283C9.35898 19.6201 9.5427 19.5451 9.694 19.3951C9.84529 19.245 9.92094 19.0521 9.92094 18.8164V16.4375C9.92094 16.2232 9.84529 16.041 9.694 15.891C9.5427 15.741 9.35898 15.6659 9.14283 15.6659H6.77607C6.04119 15.6659 5.52244 15.4409 5.21984 14.9908C4.93886 14.5194 4.79836 13.8764 4.79836 13.062V6.87484H8.85104C9.06718 6.87484 9.2509 6.79983 9.4022 6.64981C9.5535 6.49978 9.62915 6.3069 9.62915 6.07115V3.88512C9.62915 3.64938 9.5535 3.45649 9.4022 3.30647C9.2509 3.15645 9.06718 3.08144 8.85104 3.08144H4.79836V0.803685C4.79836 0.567938 4.72271 0.375054 4.57141 0.225033C4.42011 0.0750109 4.22559 0 3.98783 0L0.810533 0.89017C0.594391 0.89017 0.399863 0.965181 0.226948 1.1152C0.0756489 1.26522 0 1.45811 0 1.69386V3.08144V6.87484V13.4478C0 14.8408 0.237757 15.9981 0.71327 16.9197C1.2104 17.8413 1.93448 18.5271 2.8855 18.9771Z" fill="white"/>
  </g>
  <g transform="translate(52.25, 4.09)">
    <path d="M2.8855 18.9771C3.83653 19.4058 4.98208 19.6201 6.32217 19.6201H9.14283C9.35898 19.6201 9.5427 19.5451 9.694 19.3951C9.84529 19.245 9.92094 19.0521 9.92094 18.8164V16.4375C9.92094 16.2232 9.84529 16.041 9.694 15.891C9.5427 15.741 9.35898 15.6659 9.14283 15.6659H6.77607C6.04119 15.6659 5.52244 15.4409 5.21984 14.9908C4.93886 14.5194 4.79836 13.8764 4.79836 13.062V6.87484H8.85104C9.06718 6.87484 9.2509 6.79983 9.4022 6.64981C9.5535 6.49978 9.62915 6.3069 9.62915 6.07115V3.88512C9.62915 3.64938 9.5535 3.45649 9.4022 3.30647C9.2509 3.15645 9.06718 3.08144 8.85104 3.08144H4.79836V0.803685C4.79836 0.567938 4.72271 0.375054 4.57141 0.225033C4.42011 0.0750109 4.22559 0 3.98783 0L0.810533 0.89017C0.594391 0.89017 0.399863 0.965181 0.226948 1.1152C0.0756489 1.26522 0 1.45811 0 1.69386V3.08144V6.87484V13.4478C0 14.8408 0.237757 15.9981 0.71327 16.9197C1.2104 17.8413 1.93448 18.5271 2.8855 18.9771Z" fill="white"/>
  </g>
  <g transform="translate(66.89, 6.96)">
    <path d="M0.778111 16.7167C0.561969 16.7167 0.378248 16.6417 0.226948 16.4916C0.0756487 16.3416 0 16.1487 0 15.913V0.803687C0 0.567938 0.0756487 0.375054 0.226948 0.225034C0.378248 0.0750116 0.561969 0 0.778111 0H4.02025C4.25801 0 4.45254 0.0750116 4.60384 0.225034C4.75514 0.375054 4.83079 0.567938 4.83079 0.803687V15.913C4.83079 16.1487 4.75514 16.3416 4.60384 16.4916C4.45254 16.6417 4.25801 16.7167 4.02025 16.7167H0.778111Z" fill="white"/>
  </g>
  <circle cx="69.32" cy="2.68" r="2.68" fill="#26D4EB"/>
</svg>
